<svg width="1000" height="350" viewBox="0 0 1000 350" fill="none" xmlns="http://www.w3.org/2000/svg">
<rect width="1000" height="350" rx="20" fill="#E3C290"/>
<path d="M77.916 143V115.136H81.192V131.552L81.12 130.94C81.624 129.956 82.392 129.14 83.424 128.492C84.48 127.844 85.716 127.52 87.132 127.52C88.548 127.52 89.7 127.94 90.588 128.78C91.5 129.596 91.968 130.664 91.992 131.984V143H88.608V133.172C88.584 132.356 88.344 131.696 87.888 131.192C87.456 130.664 86.772 130.4 85.836 130.4C84.972 130.4 84.192 130.652 83.496 131.156C82.8 131.636 82.248 132.296 81.84 133.136C81.456 133.976 81.264 134.936 81.264 136.016V143H77.916ZM97.8144 128.096H101.162V143H97.8144V128.096ZM97.5624 122.696C97.5624 122.168 97.7664 121.724 98.1744 121.364C98.6064 121.004 99.0744 120.824 99.5784 120.824C100.082 120.824 100.526 121.004 100.91 121.364C101.318 121.724 101.522 122.168 101.522 122.696C101.522 123.248 101.318 123.704 100.91 124.064C100.526 124.4 100.082 124.568 99.5784 124.568C99.0744 124.568 98.6064 124.388 98.1744 124.028C97.7664 123.668 97.5624 123.224 97.5624 122.696ZM109.979 139.868C109.451 141.116 108.923 142.352 108.395 143.576C107.891 144.824 107.375 146.084 106.847 147.356H104.147C104.627 146.084 105.095 144.824 105.551 143.576C106.007 142.352 106.475 141.116 106.955 139.868H109.979ZM126.486 116.972H129.978V143H126.486V116.972ZM136.663 122.696L134.971 121.832C135.475 121.352 135.871 120.692 136.159 119.852C136.471 119.012 136.543 118.172 136.375 117.332L139.039 117.08C139.183 117.752 139.159 118.46 138.967 119.204C138.775 119.924 138.475 120.596 138.067 121.22C137.659 121.844 137.191 122.336 136.663 122.696ZM146.259 128.096L146.547 131.444L146.403 131.156C146.955 130.028 147.735 129.14 148.743 128.492C149.775 127.844 150.951 127.52 152.271 127.52C153.111 127.52 153.855 127.652 154.503 127.916C155.151 128.18 155.679 128.564 156.087 129.068C156.519 129.548 156.795 130.148 156.915 130.868L156.735 130.976C157.311 129.896 158.103 129.056 159.111 128.456C160.143 127.832 161.223 127.52 162.351 127.52C163.815 127.52 164.967 127.94 165.807 128.78C166.671 129.596 167.115 130.664 167.139 131.984V143H163.791V133.172C163.767 132.404 163.575 131.768 163.215 131.264C162.879 130.736 162.279 130.448 161.415 130.4C160.551 130.4 159.771 130.664 159.075 131.192C158.403 131.72 157.875 132.404 157.491 133.244C157.107 134.06 156.903 134.948 156.879 135.908V143H153.531V133.172C153.507 132.404 153.303 131.768 152.919 131.264C152.559 130.736 151.947 130.448 151.083 130.4C150.195 130.4 149.415 130.664 148.743 131.192C148.071 131.72 147.543 132.404 147.159 133.244C146.799 134.084 146.619 134.984 146.619 135.944V143H143.271V128.096H146.259Z" fill="white"/>
<path d="M77.984 221V151.592H96.896C103.744 151.592 109.568 152.648 114.368 154.76C119.232 156.872 123.136 159.656 126.08 163.112C129.024 166.568 131.168 170.408 132.512 174.632C133.92 178.792 134.624 182.952 134.624 187.112C134.624 192.36 133.696 197.064 131.84 201.224C130.048 205.384 127.552 208.936 124.352 211.88C121.152 214.824 117.472 217.096 113.312 218.696C109.216 220.232 104.864 221 100.256 221H77.984ZM87.296 212.072H98.432C102.272 212.072 105.792 211.496 108.992 210.344C112.256 209.192 115.072 207.528 117.44 205.352C119.872 203.176 121.76 200.52 123.104 197.384C124.448 194.184 125.12 190.568 125.12 186.536C125.12 182.248 124.416 178.504 123.008 175.304C121.6 172.04 119.68 169.32 117.248 167.144C114.816 164.968 112.064 163.336 108.992 162.248C105.92 161.096 102.688 160.52 99.296 160.52H87.296V212.072ZM164.569 221.96C160.857 221.96 157.465 221.16 154.393 219.56C151.385 217.96 148.985 215.624 147.193 212.552C145.465 209.416 144.601 205.608 144.601 201.128C144.601 196.712 145.529 192.904 147.385 189.704C149.241 186.44 151.705 183.944 154.777 182.216C157.913 180.488 161.337 179.624 165.049 179.624C168.761 179.624 171.897 180.488 174.457 182.216C177.017 183.88 178.969 185.864 180.313 188.168L179.737 189.704L180.601 181.256H188.857V221H179.929V210.632L180.889 212.936C180.633 213.576 180.057 214.408 179.161 215.432C178.329 216.392 177.177 217.384 175.705 218.408C174.297 219.432 172.665 220.296 170.809 221C168.953 221.64 166.873 221.96 164.569 221.96ZM166.969 214.568C169.209 214.568 171.225 214.152 173.017 213.32C174.809 212.488 176.281 211.336 177.433 209.864C178.649 208.328 179.481 206.504 179.929 204.392V196.616C179.417 194.696 178.521 193.032 177.241 191.624C175.961 190.152 174.425 189.032 172.633 188.264C170.841 187.432 168.857 187.016 166.681 187.016C164.313 187.016 162.137 187.592 160.153 188.744C158.169 189.896 156.569 191.496 155.353 193.544C154.201 195.592 153.625 197.992 153.625 200.744C153.625 203.304 154.233 205.64 155.449 207.752C156.665 209.864 158.297 211.528 160.345 212.744C162.393 213.96 164.601 214.568 166.969 214.568ZM212.275 181.256L213.043 190.952L212.659 189.416C213.939 186.472 216.019 184.136 218.899 182.408C221.779 180.616 225.107 179.72 228.883 179.72C232.659 179.72 235.731 180.84 238.099 183.08C240.531 185.256 241.779 188.104 241.843 191.624V221H232.819V194.792C232.755 192.616 232.115 190.856 230.899 189.512C229.747 188.104 227.923 187.4 225.427 187.4C223.123 187.4 221.043 188.04 219.187 189.32C217.331 190.6 215.859 192.36 214.771 194.6C213.747 196.84 213.235 199.432 213.235 202.376V221H204.307V181.256H212.275ZM257.37 181.256H266.298V221H257.37V181.256ZM256.698 166.856C256.698 165.448 257.242 164.264 258.33 163.304C259.482 162.344 260.73 161.864 262.074 161.864C263.418 161.864 264.602 162.344 265.626 163.304C266.714 164.264 267.258 165.448 267.258 166.856C267.258 168.328 266.714 169.544 265.626 170.504C264.602 171.4 263.418 171.848 262.074 171.848C260.73 171.848 259.482 171.368 258.33 170.408C257.242 169.448 256.698 168.264 256.698 166.856ZM281.745 146.696H290.673V221H281.745V146.696ZM322.632 221.96C318.92 221.96 315.528 221.16 312.456 219.56C309.448 217.96 307.048 215.624 305.256 212.552C303.528 209.416 302.664 205.608 302.664 201.128C302.664 196.712 303.592 192.904 305.448 189.704C307.304 186.44 309.768 183.944 312.84 182.216C315.976 180.488 319.4 179.624 323.112 179.624C326.824 179.624 329.96 180.488 332.52 182.216C335.08 183.88 337.032 185.864 338.376 188.168L337.8 189.704L338.664 181.256H346.92V221H337.992V210.632L338.952 212.936C338.696 213.576 338.12 214.408 337.224 215.432C336.392 216.392 335.24 217.384 333.768 218.408C332.36 219.432 330.728 220.296 328.872 221C327.016 221.64 324.936 221.96 322.632 221.96ZM325.032 214.568C327.272 214.568 329.288 214.152 331.08 213.32C332.872 212.488 334.344 211.336 335.496 209.864C336.712 208.328 337.544 206.504 337.992 204.392V196.616C337.48 194.696 336.584 193.032 335.304 191.624C334.024 190.152 332.488 189.032 330.696 188.264C328.904 187.432 326.92 187.016 324.744 187.016C322.376 187.016 320.2 187.592 318.216 188.744C316.232 189.896 314.632 191.496 313.416 193.544C312.264 195.592 311.688 197.992 311.688 200.744C311.688 203.304 312.296 205.64 313.512 207.752C314.728 209.864 316.36 211.528 318.408 212.744C320.456 213.96 322.664 214.568 325.032 214.568Z" fill="white"/>
</svg>
