<svg width="820" height="218" viewBox="0 0 820 218" fill="none" xmlns="http://www.w3.org/2000/svg">
<g filter="url(#filter0_d_201_32)">
<rect x="4" width="811" height="210" rx="20" fill="#4CA3E2"/>
<rect x="4" width="811" height="210" rx="20" fill="url(#paint0_linear_201_32)" fill-opacity="0.8"/>
<rect x="4" width="812" height="210" rx="20" fill="url(#paint1_linear_201_32)"/>
</g>
<g filter="url(#filter1_i_201_32)">
<path d="M73.592 89V64.232H76.504V78.824L76.44 78.28C76.888 77.4053 77.5707 76.68 78.488 76.104C79.4267 75.528 80.5253 75.24 81.784 75.24C83.0427 75.24 84.0667 75.6133 84.856 76.36C85.6667 77.0853 86.0827 78.0347 86.104 79.208V89H83.096V80.264C83.0747 79.5387 82.8613 78.952 82.456 78.504C82.072 78.0347 81.464 77.8 80.632 77.8C79.864 77.8 79.1707 78.024 78.552 78.472C77.9333 78.8987 77.4427 79.4853 77.08 80.232C76.7387 80.9787 76.568 81.832 76.568 82.792V89H73.592ZM91.2795 75.752H94.2555V89H91.2795V75.752ZM91.0555 70.952C91.0555 70.4827 91.2368 70.088 91.5995 69.768C91.9835 69.448 92.3995 69.288 92.8475 69.288C93.2955 69.288 93.6902 69.448 94.0315 69.768C94.3942 70.088 94.5755 70.4827 94.5755 70.952C94.5755 71.4427 94.3942 71.848 94.0315 72.168C93.6902 72.4667 93.2955 72.616 92.8475 72.616C92.3995 72.616 91.9835 72.456 91.5995 72.136C91.2368 71.816 91.0555 71.4213 91.0555 70.952ZM102.093 86.216C101.623 87.3253 101.154 88.424 100.685 89.512C100.237 90.6213 99.7778 91.7413 99.3085 92.872H96.9085C97.3352 91.7413 97.7512 90.6213 98.1565 89.512C98.5618 88.424 98.9778 87.3253 99.4045 86.216H102.093ZM116.766 65.864H119.87V89H116.766V65.864ZM125.812 70.952L124.308 70.184C124.756 69.7573 125.108 69.1707 125.364 68.424C125.641 67.6773 125.705 66.9307 125.556 66.184L127.924 65.96C128.052 66.5573 128.03 67.1867 127.86 67.848C127.689 68.488 127.422 69.0853 127.06 69.64C126.697 70.1947 126.281 70.632 125.812 70.952ZM134.342 75.752L134.598 78.728L134.47 78.472C134.96 77.4693 135.654 76.68 136.55 76.104C137.467 75.528 138.512 75.24 139.686 75.24C140.432 75.24 141.094 75.3573 141.67 75.592C142.246 75.8267 142.715 76.168 143.078 76.616C143.462 77.0427 143.707 77.576 143.814 78.216L143.654 78.312C144.166 77.352 144.87 76.6053 145.766 76.072C146.683 75.5173 147.643 75.24 148.646 75.24C149.947 75.24 150.971 75.6133 151.718 76.36C152.486 77.0853 152.88 78.0347 152.902 79.208V89H149.926V80.264C149.904 79.5813 149.734 79.016 149.414 78.568C149.115 78.0987 148.582 77.8427 147.814 77.8C147.046 77.8 146.352 78.0347 145.734 78.504C145.136 78.9733 144.667 79.5813 144.326 80.328C143.984 81.0533 143.803 81.8427 143.782 82.696V89H140.806V80.264C140.784 79.5813 140.603 79.016 140.262 78.568C139.942 78.0987 139.398 77.8427 138.63 77.8C137.84 77.8 137.147 78.0347 136.55 78.504C135.952 78.9733 135.483 79.5813 135.142 80.328C134.822 81.0747 134.662 81.8747 134.662 82.728V89H131.686V75.752H134.342Z" fill="white"/>
</g>
<g filter="url(#filter2_i_201_32)">
<path d="M73.656 141V94.728H86.264C90.8293 94.728 94.712 95.432 97.912 96.84C101.155 98.248 103.757 100.104 105.72 102.408C107.683 104.712 109.112 107.272 110.008 110.088C110.947 112.861 111.416 115.635 111.416 118.408C111.416 121.907 110.797 125.043 109.56 127.816C108.365 130.589 106.701 132.957 104.568 134.92C102.435 136.883 99.9813 138.397 97.208 139.464C94.4773 140.488 91.576 141 88.504 141H73.656ZM79.864 135.048H87.288C89.848 135.048 92.1947 134.664 94.328 133.896C96.504 133.128 98.3813 132.019 99.96 130.568C101.581 129.117 102.84 127.347 103.736 125.256C104.632 123.123 105.08 120.712 105.08 118.024C105.08 115.165 104.611 112.669 103.672 110.536C102.733 108.36 101.453 106.547 99.832 105.096C98.2107 103.645 96.376 102.557 94.328 101.832C92.28 101.064 90.1253 100.68 87.864 100.68H79.864V135.048ZM131.38 141.64C128.905 141.64 126.644 141.107 124.595 140.04C122.59 138.973 120.99 137.416 119.796 135.368C118.644 133.277 118.068 130.739 118.068 127.752C118.068 124.808 118.686 122.269 119.924 120.136C121.161 117.96 122.804 116.296 124.852 115.144C126.942 113.992 129.225 113.416 131.7 113.416C134.174 113.416 136.265 113.992 137.972 115.144C139.678 116.253 140.98 117.576 141.876 119.112L141.492 120.136L142.068 114.504H147.572V141H141.62V134.088L142.26 135.624C142.089 136.051 141.705 136.605 141.108 137.288C140.553 137.928 139.785 138.589 138.804 139.272C137.865 139.955 136.777 140.531 135.54 141C134.302 141.427 132.916 141.64 131.38 141.64ZM132.98 136.712C134.473 136.712 135.817 136.435 137.012 135.88C138.206 135.325 139.188 134.557 139.956 133.576C140.766 132.552 141.321 131.336 141.62 129.928V124.744C141.278 123.464 140.681 122.355 139.828 121.416C138.974 120.435 137.95 119.688 136.756 119.176C135.561 118.621 134.238 118.344 132.788 118.344C131.209 118.344 129.758 118.728 128.436 119.496C127.113 120.264 126.046 121.331 125.236 122.696C124.468 124.061 124.084 125.661 124.084 127.496C124.084 129.203 124.489 130.76 125.3 132.168C126.11 133.576 127.198 134.685 128.564 135.496C129.929 136.307 131.401 136.712 132.98 136.712ZM163.184 114.504L163.696 120.968L163.44 119.944C164.293 117.981 165.68 116.424 167.6 115.272C169.52 114.077 171.738 113.48 174.256 113.48C176.773 113.48 178.821 114.227 180.4 115.72C182.021 117.171 182.853 119.069 182.896 121.416V141H176.88V123.528C176.837 122.077 176.41 120.904 175.6 120.008C174.832 119.069 173.616 118.6 171.952 118.6C170.416 118.6 169.029 119.027 167.792 119.88C166.554 120.733 165.573 121.907 164.848 123.4C164.165 124.893 163.824 126.621 163.824 128.584V141H157.872V114.504H163.184ZM193.247 114.504H199.199V141H193.247V114.504ZM192.799 104.904C192.799 103.965 193.161 103.176 193.887 102.536C194.655 101.896 195.487 101.576 196.383 101.576C197.279 101.576 198.068 101.896 198.751 102.536C199.476 103.176 199.839 103.965 199.839 104.904C199.839 105.885 199.476 106.696 198.751 107.336C198.068 107.933 197.279 108.232 196.383 108.232C195.487 108.232 194.655 107.912 193.887 107.272C193.161 106.632 192.799 105.843 192.799 104.904ZM209.497 91.464H215.449V141H209.497V91.464ZM236.755 141.64C234.28 141.64 232.019 141.107 229.97 140.04C227.965 138.973 226.365 137.416 225.171 135.368C224.019 133.277 223.443 130.739 223.443 127.752C223.443 124.808 224.061 122.269 225.299 120.136C226.536 117.96 228.179 116.296 230.227 115.144C232.317 113.992 234.6 113.416 237.075 113.416C239.549 113.416 241.64 113.992 243.347 115.144C245.053 116.253 246.355 117.576 247.251 119.112L246.867 120.136L247.443 114.504H252.947V141H246.995V134.088L247.635 135.624C247.464 136.051 247.08 136.605 246.483 137.288C245.928 137.928 245.16 138.589 244.179 139.272C243.24 139.955 242.152 140.531 240.915 141C239.677 141.427 238.291 141.64 236.755 141.64ZM238.355 136.712C239.848 136.712 241.192 136.435 242.387 135.88C243.581 135.325 244.563 134.557 245.331 133.576C246.141 132.552 246.696 131.336 246.995 129.928V124.744C246.653 123.464 246.056 122.355 245.203 121.416C244.349 120.435 243.325 119.688 242.131 119.176C240.936 118.621 239.613 118.344 238.163 118.344C236.584 118.344 235.133 118.728 233.811 119.496C232.488 120.264 231.421 121.331 230.611 122.696C229.843 124.061 229.459 125.661 229.459 127.496C229.459 129.203 229.864 130.76 230.675 132.168C231.485 133.576 232.573 134.685 233.939 135.496C235.304 136.307 236.776 136.712 238.355 136.712Z" fill="white"/>
</g>
<defs>
<filter id="filter0_d_201_32" x="0" y="0" width="820" height="218" filterUnits="userSpaceOnUse" color-interpolation-filters="sRGB">
<feFlood flood-opacity="0" result="BackgroundImageFix"/>
<feColorMatrix in="SourceAlpha" type="matrix" values="0 0 0 0 0 0 0 0 0 0 0 0 0 0 0 0 0 0 127 0" result="hardAlpha"/>
<feOffset dy="4"/>
<feGaussianBlur stdDeviation="2"/>
<feComposite in2="hardAlpha" operator="out"/>
<feColorMatrix type="matrix" values="0 0 0 0 0 0 0 0 0 0 0 0 0 0 0 0 0 0 0.25 0"/>
<feBlend mode="normal" in2="BackgroundImageFix" result="effect1_dropShadow_201_32"/>
<feBlend mode="normal" in="SourceGraphic" in2="effect1_dropShadow_201_32" result="shape"/>
</filter>
<filter id="filter1_i_201_32" x="73.592" y="64.2321" width="82.3098" height="31.6399" filterUnits="userSpaceOnUse" color-interpolation-filters="sRGB">
<feFlood flood-opacity="0" result="BackgroundImageFix"/>
<feBlend mode="normal" in="SourceGraphic" in2="BackgroundImageFix" result="shape"/>
<feColorMatrix in="SourceAlpha" type="matrix" values="0 0 0 0 0 0 0 0 0 0 0 0 0 0 0 0 0 0 127 0" result="hardAlpha"/>
<feOffset dx="3" dy="3"/>
<feGaussianBlur stdDeviation="1.5"/>
<feComposite in2="hardAlpha" operator="arithmetic" k2="-1" k3="1"/>
<feColorMatrix type="matrix" values="0 0 0 0 0 0 0 0 0 0 0 0 0 0 0 0 0 0 0.1 0"/>
<feBlend mode="normal" in2="shape" result="effect1_innerShadow_201_32"/>
</filter>
<filter id="filter2_i_201_32" x="73.656" y="91.464" width="182.29" height="53.176" filterUnits="userSpaceOnUse" color-interpolation-filters="sRGB">
<feFlood flood-opacity="0" result="BackgroundImageFix"/>
<feBlend mode="normal" in="SourceGraphic" in2="BackgroundImageFix" result="shape"/>
<feColorMatrix in="SourceAlpha" type="matrix" values="0 0 0 0 0 0 0 0 0 0 0 0 0 0 0 0 0 0 127 0" result="hardAlpha"/>
<feOffset dx="3" dy="3"/>
<feGaussianBlur stdDeviation="1.5"/>
<feComposite in2="hardAlpha" operator="arithmetic" k2="-1" k3="1"/>
<feColorMatrix type="matrix" values="0 0 0 0 0 0 0 0 0 0 0 0 0 0 0 0 0 0 0.1 0"/>
<feBlend mode="normal" in2="shape" result="effect1_innerShadow_201_32"/>
</filter>
<linearGradient id="paint0_linear_201_32" x1="4" y1="105" x2="815" y2="105" gradientUnits="userSpaceOnUse">
<stop stop-color="#6BFC5E"/>
<stop offset="1" stop-color="#EF4D4D" stop-opacity="0"/>
</linearGradient>
<linearGradient id="paint1_linear_201_32" x1="410" y1="0" x2="410" y2="210" gradientUnits="userSpaceOnUse">
<stop stop-color="#477FEF" stop-opacity="0.38"/>
<stop offset="1" stop-color="#4CE288" stop-opacity="0.31"/>
</linearGradient>
</defs>
</svg>
