<svg width="1008" height="358" viewBox="0 0 1008 358" fill="none" xmlns="http://www.w3.org/2000/svg">
<g filter="url(#filter0_d_6_11)">
<rect x="4" width="1000" height="350" rx="20" fill="#4CA3E2"/>
<rect x="4" width="1000" height="350" rx="20" fill="url(#paint0_linear_6_11)" fill-opacity="0.8"/>
</g>
<g filter="url(#filter1_d_6_11)">
<rect x="4" width="1000" height="350" rx="20" fill="url(#paint1_linear_6_11)" shape-rendering="crispEdges"/>
</g>
<path d="M81.916 143V115.136H85.192V131.552L85.12 130.94C85.624 129.956 86.392 129.14 87.424 128.492C88.48 127.844 89.716 127.52 91.132 127.52C92.548 127.52 93.7 127.94 94.588 128.78C95.5 129.596 95.968 130.664 95.992 131.984V143H92.608V133.172C92.584 132.356 92.344 131.696 91.888 131.192C91.456 130.664 90.772 130.4 89.836 130.4C88.972 130.4 88.192 130.652 87.496 131.156C86.8 131.636 86.248 132.296 85.84 133.136C85.456 133.976 85.264 134.936 85.264 136.016V143H81.916ZM101.814 128.096H105.162V143H101.814V128.096ZM101.562 122.696C101.562 122.168 101.766 121.724 102.174 121.364C102.606 121.004 103.074 120.824 103.578 120.824C104.082 120.824 104.526 121.004 104.91 121.364C105.318 121.724 105.522 122.168 105.522 122.696C105.522 123.248 105.318 123.704 104.91 124.064C104.526 124.4 104.082 124.568 103.578 124.568C103.074 124.568 102.606 124.388 102.174 124.028C101.766 123.668 101.562 123.224 101.562 122.696ZM113.979 139.868C113.451 141.116 112.923 142.352 112.395 143.576C111.891 144.824 111.375 146.084 110.847 147.356H108.147C108.627 146.084 109.095 144.824 109.551 143.576C110.007 142.352 110.475 141.116 110.955 139.868H113.979ZM130.486 116.972H133.978V143H130.486V116.972ZM140.663 122.696L138.971 121.832C139.475 121.352 139.871 120.692 140.159 119.852C140.471 119.012 140.543 118.172 140.375 117.332L143.039 117.08C143.183 117.752 143.159 118.46 142.967 119.204C142.775 119.924 142.475 120.596 142.067 121.22C141.659 121.844 141.191 122.336 140.663 122.696ZM150.259 128.096L150.547 131.444L150.403 131.156C150.955 130.028 151.735 129.14 152.743 128.492C153.775 127.844 154.951 127.52 156.271 127.52C157.111 127.52 157.855 127.652 158.503 127.916C159.151 128.18 159.679 128.564 160.087 129.068C160.519 129.548 160.795 130.148 160.915 130.868L160.735 130.976C161.311 129.896 162.103 129.056 163.111 128.456C164.143 127.832 165.223 127.52 166.351 127.52C167.815 127.52 168.967 127.94 169.807 128.78C170.671 129.596 171.115 130.664 171.139 131.984V143H167.791V133.172C167.767 132.404 167.575 131.768 167.215 131.264C166.879 130.736 166.279 130.448 165.415 130.4C164.551 130.4 163.771 130.664 163.075 131.192C162.403 131.72 161.875 132.404 161.491 133.244C161.107 134.06 160.903 134.948 160.879 135.908V143H157.531V133.172C157.507 132.404 157.303 131.768 156.919 131.264C156.559 130.736 155.947 130.448 155.083 130.4C154.195 130.4 153.415 130.664 152.743 131.192C152.071 131.72 151.543 132.404 151.159 133.244C150.799 134.084 150.619 134.984 150.619 135.944V143H147.271V128.096H150.259Z" fill="white"/>
<path d="M81.984 221V151.592H100.896C107.744 151.592 113.568 152.648 118.368 154.76C123.232 156.872 127.136 159.656 130.08 163.112C133.024 166.568 135.168 170.408 136.512 174.632C137.92 178.792 138.624 182.952 138.624 187.112C138.624 192.36 137.696 197.064 135.84 201.224C134.048 205.384 131.552 208.936 128.352 211.88C125.152 214.824 121.472 217.096 117.312 218.696C113.216 220.232 108.864 221 104.256 221H81.984ZM91.296 212.072H102.432C106.272 212.072 109.792 211.496 112.992 210.344C116.256 209.192 119.072 207.528 121.44 205.352C123.872 203.176 125.76 200.52 127.104 197.384C128.448 194.184 129.12 190.568 129.12 186.536C129.12 182.248 128.416 178.504 127.008 175.304C125.6 172.04 123.68 169.32 121.248 167.144C118.816 164.968 116.064 163.336 112.992 162.248C109.92 161.096 106.688 160.52 103.296 160.52H91.296V212.072ZM168.569 221.96C164.857 221.96 161.465 221.16 158.393 219.56C155.385 217.96 152.985 215.624 151.193 212.552C149.465 209.416 148.601 205.608 148.601 201.128C148.601 196.712 149.529 192.904 151.385 189.704C153.241 186.44 155.705 183.944 158.777 182.216C161.913 180.488 165.337 179.624 169.049 179.624C172.761 179.624 175.897 180.488 178.457 182.216C181.017 183.88 182.969 185.864 184.313 188.168L183.737 189.704L184.601 181.256H192.857V221H183.929V210.632L184.889 212.936C184.633 213.576 184.057 214.408 183.161 215.432C182.329 216.392 181.177 217.384 179.705 218.408C178.297 219.432 176.665 220.296 174.809 221C172.953 221.64 170.873 221.96 168.569 221.96ZM170.969 214.568C173.209 214.568 175.225 214.152 177.017 213.32C178.809 212.488 180.281 211.336 181.433 209.864C182.649 208.328 183.481 206.504 183.929 204.392V196.616C183.417 194.696 182.521 193.032 181.241 191.624C179.961 190.152 178.425 189.032 176.633 188.264C174.841 187.432 172.857 187.016 170.681 187.016C168.313 187.016 166.137 187.592 164.153 188.744C162.169 189.896 160.569 191.496 159.353 193.544C158.201 195.592 157.625 197.992 157.625 200.744C157.625 203.304 158.233 205.64 159.449 207.752C160.665 209.864 162.297 211.528 164.345 212.744C166.393 213.96 168.601 214.568 170.969 214.568ZM216.275 181.256L217.043 190.952L216.659 189.416C217.939 186.472 220.019 184.136 222.899 182.408C225.779 180.616 229.107 179.72 232.883 179.72C236.659 179.72 239.731 180.84 242.099 183.08C244.531 185.256 245.779 188.104 245.843 191.624V221H236.819V194.792C236.755 192.616 236.115 190.856 234.899 189.512C233.747 188.104 231.923 187.4 229.427 187.4C227.123 187.4 225.043 188.04 223.187 189.32C221.331 190.6 219.859 192.36 218.771 194.6C217.747 196.84 217.235 199.432 217.235 202.376V221H208.307V181.256H216.275ZM261.37 181.256H270.298V221H261.37V181.256ZM260.698 166.856C260.698 165.448 261.242 164.264 262.33 163.304C263.482 162.344 264.73 161.864 266.074 161.864C267.418 161.864 268.602 162.344 269.626 163.304C270.714 164.264 271.258 165.448 271.258 166.856C271.258 168.328 270.714 169.544 269.626 170.504C268.602 171.4 267.418 171.848 266.074 171.848C264.73 171.848 263.482 171.368 262.33 170.408C261.242 169.448 260.698 168.264 260.698 166.856ZM285.745 146.696H294.673V221H285.745V146.696ZM326.632 221.96C322.92 221.96 319.528 221.16 316.456 219.56C313.448 217.96 311.048 215.624 309.256 212.552C307.528 209.416 306.664 205.608 306.664 201.128C306.664 196.712 307.592 192.904 309.448 189.704C311.304 186.44 313.768 183.944 316.84 182.216C319.976 180.488 323.4 179.624 327.112 179.624C330.824 179.624 333.96 180.488 336.52 182.216C339.08 183.88 341.032 185.864 342.376 188.168L341.8 189.704L342.664 181.256H350.92V221H341.992V210.632L342.952 212.936C342.696 213.576 342.12 214.408 341.224 215.432C340.392 216.392 339.24 217.384 337.768 218.408C336.36 219.432 334.728 220.296 332.872 221C331.016 221.64 328.936 221.96 326.632 221.96ZM329.032 214.568C331.272 214.568 333.288 214.152 335.08 213.32C336.872 212.488 338.344 211.336 339.496 209.864C340.712 208.328 341.544 206.504 341.992 204.392V196.616C341.48 194.696 340.584 193.032 339.304 191.624C338.024 190.152 336.488 189.032 334.696 188.264C332.904 187.432 330.92 187.016 328.744 187.016C326.376 187.016 324.2 187.592 322.216 188.744C320.232 189.896 318.632 191.496 317.416 193.544C316.264 195.592 315.688 197.992 315.688 200.744C315.688 203.304 316.296 205.64 317.512 207.752C318.728 209.864 320.36 211.528 322.408 212.744C324.456 213.96 326.664 214.568 329.032 214.568Z" fill="white"/>
<defs>
<filter id="filter0_d_6_11" x="0" y="0" width="1008" height="358" filterUnits="userSpaceOnUse" color-interpolation-filters="sRGB">
<feFlood flood-opacity="0" result="BackgroundImageFix"/>
<feColorMatrix in="SourceAlpha" type="matrix" values="0 0 0 0 0 0 0 0 0 0 0 0 0 0 0 0 0 0 127 0" result="hardAlpha"/>
<feOffset dy="4"/>
<feGaussianBlur stdDeviation="2"/>
<feComposite in2="hardAlpha" operator="out"/>
<feColorMatrix type="matrix" values="0 0 0 0 0 0 0 0 0 0 0 0 0 0 0 0 0 0 0.25 0"/>
<feBlend mode="normal" in2="BackgroundImageFix" result="effect1_dropShadow_6_11"/>
<feBlend mode="normal" in="SourceGraphic" in2="effect1_dropShadow_6_11" result="shape"/>
</filter>
<filter id="filter1_d_6_11" x="0" y="0" width="1008" height="358" filterUnits="userSpaceOnUse" color-interpolation-filters="sRGB">
<feFlood flood-opacity="0" result="BackgroundImageFix"/>
<feColorMatrix in="SourceAlpha" type="matrix" values="0 0 0 0 0 0 0 0 0 0 0 0 0 0 0 0 0 0 127 0" result="hardAlpha"/>
<feOffset dy="4"/>
<feGaussianBlur stdDeviation="2"/>
<feComposite in2="hardAlpha" operator="out"/>
<feColorMatrix type="matrix" values="0 0 0 0 0 0 0 0 0 0 0 0 0 0 0 0 0 0 0.25 0"/>
<feBlend mode="normal" in2="BackgroundImageFix" result="effect1_dropShadow_6_11"/>
<feBlend mode="normal" in="SourceGraphic" in2="effect1_dropShadow_6_11" result="shape"/>
</filter>
<linearGradient id="paint0_linear_6_11" x1="4" y1="175" x2="1004" y2="175" gradientUnits="userSpaceOnUse">
<stop stop-color="#6BFC5E"/>
<stop offset="1" stop-color="#EF4D4D" stop-opacity="0"/>
</linearGradient>
<linearGradient id="paint1_linear_6_11" x1="504" y1="0" x2="504" y2="350" gradientUnits="userSpaceOnUse">
<stop stop-color="#477FEF" stop-opacity="0.38"/>
<stop offset="1" stop-color="#4CE288" stop-opacity="0.31"/>
</linearGradient>
</defs>
</svg>
